<?xml version="1.0" encoding="utf-8" standalone="no"?>
<!DOCTYPE svg PUBLIC "-//W3C//DTD SVG 1.1//EN"
  "http://www.w3.org/Graphics/SVG/1.1/DTD/svg11.dtd">
<svg xmlns:xlink="http://www.w3.org/1999/xlink" width="864pt" height="360pt" viewBox="0 0 864 360" xmlns="http://www.w3.org/2000/svg" version="1.1">
 <metadata>
  <rdf:RDF xmlns:dc="http://purl.org/dc/elements/1.1/" xmlns:cc="http://creativecommons.org/ns#" xmlns:rdf="http://www.w3.org/1999/02/22-rdf-syntax-ns#">
   <cc:Work>
    <dc:type rdf:resource="http://purl.org/dc/dcmitype/StillImage"/>
    <dc:date>2023-09-25T08:10:46.783117</dc:date>
    <dc:format>image/svg+xml</dc:format>
    <dc:creator>
     <cc:Agent>
      <dc:title>Matplotlib v3.8.0, https://matplotlib.org/</dc:title>
     </cc:Agent>
    </dc:creator>
   </cc:Work>
  </rdf:RDF>
 </metadata>
 <defs>
  <style type="text/css">*{stroke-linejoin: round; stroke-linecap: butt}</style>
 </defs>
 <g id="figure_1">
  <g id="patch_1">
   <path d="M 0 360 
L 864 360 
L 864 0 
L 0 0 
L 0 360 
z
" style="fill: none; opacity: 0"/>
  </g>
  <g id="axes_1">
   <g id="patch_2">
    <path d="M 108 320.4 
L 777.6 320.4 
L 777.6 43.2 
L 108 43.2 
L 108 320.4 
z
" style="fill: none; opacity: 0"/>
   </g>
   <g id="matplotlib.axis_1">
    <g id="xtick_1">
     <g id="line2d_1">
      <path d="M 120.78097 320.4 
L 120.78097 43.2 
" clip-path="url(#p3d52cc2c9c)" style="fill: none; stroke-dasharray: 5.12,1.28,0.8,1.28; stroke-dashoffset: 0; stroke: #b0b0b0; stroke-width: 0.8"/>
     </g>
     <g id="line2d_2">
      <defs>
       <path id="mc9176a6875" d="M 0 0 
L 0 3.5 
" style="stroke: #a9a9a9; stroke-width: 0.8"/>
      </defs>
      <g>
       <use xlink:href="#mc9176a6875" x="120.78097" y="320.4" style="fill: #a9a9a9; stroke: #a9a9a9; stroke-width: 0.8"/>
      </g>
     </g>
     <g id="text_1">
      <!-- 2021-07 -->
      <g style="fill: #a9a9a9" transform="translate(99.889564 334.998438) scale(0.1 -0.1)">
       <defs>
        <path id="DejaVuSans-32" d="M 1228 531 
L 3431 531 
L 3431 0 
L 469 0 
L 469 531 
Q 828 903 1448 1529 
Q 2069 2156 2228 2338 
Q 2531 2678 2651 2914 
Q 2772 3150 2772 3378 
Q 2772 3750 2511 3984 
Q 2250 4219 1831 4219 
Q 1534 4219 1204 4116 
Q 875 4013 500 3803 
L 500 4441 
Q 881 4594 1212 4672 
Q 1544 4750 1819 4750 
Q 2544 4750 2975 4387 
Q 3406 4025 3406 3419 
Q 3406 3131 3298 2873 
Q 3191 2616 2906 2266 
Q 2828 2175 2409 1742 
Q 1991 1309 1228 531 
z
" transform="scale(0.015625)"/>
        <path id="DejaVuSans-30" d="M 2034 4250 
Q 1547 4250 1301 3770 
Q 1056 3291 1056 2328 
Q 1056 1369 1301 889 
Q 1547 409 2034 409 
Q 2525 409 2770 889 
Q 3016 1369 3016 2328 
Q 3016 3291 2770 3770 
Q 2525 4250 2034 4250 
z
M 2034 4750 
Q 2819 4750 3233 4129 
Q 3647 3509 3647 2328 
Q 3647 1150 3233 529 
Q 2819 -91 2034 -91 
Q 1250 -91 836 529 
Q 422 1150 422 2328 
Q 422 3509 836 4129 
Q 1250 4750 2034 4750 
z
" transform="scale(0.015625)"/>
        <path id="DejaVuSans-31" d="M 794 531 
L 1825 531 
L 1825 4091 
L 703 3866 
L 703 4441 
L 1819 4666 
L 2450 4666 
L 2450 531 
L 3481 531 
L 3481 0 
L 794 0 
L 794 531 
z
" transform="scale(0.015625)"/>
        <path id="DejaVuSans-2d" d="M 313 2009 
L 1997 2009 
L 1997 1497 
L 313 1497 
L 313 2009 
z
" transform="scale(0.015625)"/>
        <path id="DejaVuSans-37" d="M 525 4666 
L 3525 4666 
L 3525 4397 
L 1831 0 
L 1172 0 
L 2766 4134 
L 525 4134 
L 525 4666 
z
" transform="scale(0.015625)"/>
       </defs>
       <use xlink:href="#DejaVuSans-32"/>
       <use xlink:href="#DejaVuSans-30" x="63.623047"/>
       <use xlink:href="#DejaVuSans-32" x="127.246094"/>
       <use xlink:href="#DejaVuSans-31" x="190.869141"/>
       <use xlink:href="#DejaVuSans-2d" x="254.492188"/>
       <use xlink:href="#DejaVuSans-30" x="290.576172"/>
       <use xlink:href="#DejaVuSans-37" x="354.199219"/>
      </g>
     </g>
    </g>
    <g id="xtick_2">
     <g id="line2d_3">
      <path d="M 191.402545 320.4 
L 191.402545 43.2 
" clip-path="url(#p3d52cc2c9c)" style="fill: none; stroke-dasharray: 5.12,1.28,0.8,1.28; stroke-dashoffset: 0; stroke: #b0b0b0; stroke-width: 0.8"/>
     </g>
     <g id="line2d_4">
      <g>
       <use xlink:href="#mc9176a6875" x="191.402545" y="320.4" style="fill: #a9a9a9; stroke: #a9a9a9; stroke-width: 0.8"/>
      </g>
     </g>
     <g id="text_2">
      <!-- 2021-10 -->
      <g style="fill: #a9a9a9" transform="translate(170.511139 334.998438) scale(0.1 -0.1)">
       <use xlink:href="#DejaVuSans-32"/>
       <use xlink:href="#DejaVuSans-30" x="63.623047"/>
       <use xlink:href="#DejaVuSans-32" x="127.246094"/>
       <use xlink:href="#DejaVuSans-31" x="190.869141"/>
       <use xlink:href="#DejaVuSans-2d" x="254.492188"/>
       <use xlink:href="#DejaVuSans-31" x="290.576172"/>
       <use xlink:href="#DejaVuSans-30" x="354.199219"/>
      </g>
     </g>
    </g>
    <g id="xtick_3">
     <g id="line2d_5">
      <path d="M 262.02412 320.4 
L 262.02412 43.2 
" clip-path="url(#p3d52cc2c9c)" style="fill: none; stroke-dasharray: 5.12,1.28,0.8,1.28; stroke-dashoffset: 0; stroke: #b0b0b0; stroke-width: 0.8"/>
     </g>
     <g id="line2d_6">
      <g>
       <use xlink:href="#mc9176a6875" x="262.02412" y="320.4" style="fill: #a9a9a9; stroke: #a9a9a9; stroke-width: 0.8"/>
      </g>
     </g>
     <g id="text_3">
      <!-- 2022-01 -->
      <g style="fill: #a9a9a9" transform="translate(241.132714 334.998438) scale(0.1 -0.1)">
       <use xlink:href="#DejaVuSans-32"/>
       <use xlink:href="#DejaVuSans-30" x="63.623047"/>
       <use xlink:href="#DejaVuSans-32" x="127.246094"/>
       <use xlink:href="#DejaVuSans-32" x="190.869141"/>
       <use xlink:href="#DejaVuSans-2d" x="254.492188"/>
       <use xlink:href="#DejaVuSans-30" x="290.576172"/>
       <use xlink:href="#DejaVuSans-31" x="354.199219"/>
      </g>
     </g>
    </g>
    <g id="xtick_4">
     <g id="line2d_7">
      <path d="M 331.110444 320.4 
L 331.110444 43.2 
" clip-path="url(#p3d52cc2c9c)" style="fill: none; stroke-dasharray: 5.12,1.28,0.8,1.28; stroke-dashoffset: 0; stroke: #b0b0b0; stroke-width: 0.8"/>
     </g>
     <g id="line2d_8">
      <g>
       <use xlink:href="#mc9176a6875" x="331.110444" y="320.4" style="fill: #a9a9a9; stroke: #a9a9a9; stroke-width: 0.8"/>
      </g>
     </g>
     <g id="text_4">
      <!-- 2022-04 -->
      <g style="fill: #a9a9a9" transform="translate(310.219037 334.998438) scale(0.1 -0.1)">
       <defs>
        <path id="DejaVuSans-34" d="M 2419 4116 
L 825 1625 
L 2419 1625 
L 2419 4116 
z
M 2253 4666 
L 3047 4666 
L 3047 1625 
L 3713 1625 
L 3713 1100 
L 3047 1100 
L 3047 0 
L 2419 0 
L 2419 1100 
L 313 1100 
L 313 1709 
L 2253 4666 
z
" transform="scale(0.015625)"/>
       </defs>
       <use xlink:href="#DejaVuSans-32"/>
       <use xlink:href="#DejaVuSans-30" x="63.623047"/>
       <use xlink:href="#DejaVuSans-32" x="127.246094"/>
       <use xlink:href="#DejaVuSans-32" x="190.869141"/>
       <use xlink:href="#DejaVuSans-2d" x="254.492188"/>
       <use xlink:href="#DejaVuSans-30" x="290.576172"/>
       <use xlink:href="#DejaVuSans-34" x="354.199219"/>
      </g>
     </g>
    </g>
    <g id="xtick_5">
     <g id="line2d_9">
      <path d="M 400.964393 320.4 
L 400.964393 43.2 
" clip-path="url(#p3d52cc2c9c)" style="fill: none; stroke-dasharray: 5.12,1.28,0.8,1.28; stroke-dashoffset: 0; stroke: #b0b0b0; stroke-width: 0.8"/>
     </g>
     <g id="line2d_10">
      <g>
       <use xlink:href="#mc9176a6875" x="400.964393" y="320.4" style="fill: #a9a9a9; stroke: #a9a9a9; stroke-width: 0.8"/>
      </g>
     </g>
     <g id="text_5">
      <!-- 2022-07 -->
      <g style="fill: #a9a9a9" transform="translate(380.072987 334.998438) scale(0.1 -0.1)">
       <use xlink:href="#DejaVuSans-32"/>
       <use xlink:href="#DejaVuSans-30" x="63.623047"/>
       <use xlink:href="#DejaVuSans-32" x="127.246094"/>
       <use xlink:href="#DejaVuSans-32" x="190.869141"/>
       <use xlink:href="#DejaVuSans-2d" x="254.492188"/>
       <use xlink:href="#DejaVuSans-30" x="290.576172"/>
       <use xlink:href="#DejaVuSans-37" x="354.199219"/>
      </g>
     </g>
    </g>
    <g id="xtick_6">
     <g id="line2d_11">
      <path d="M 471.585968 320.4 
L 471.585968 43.2 
" clip-path="url(#p3d52cc2c9c)" style="fill: none; stroke-dasharray: 5.12,1.28,0.8,1.28; stroke-dashoffset: 0; stroke: #b0b0b0; stroke-width: 0.8"/>
     </g>
     <g id="line2d_12">
      <g>
       <use xlink:href="#mc9176a6875" x="471.585968" y="320.4" style="fill: #a9a9a9; stroke: #a9a9a9; stroke-width: 0.8"/>
      </g>
     </g>
     <g id="text_6">
      <!-- 2022-10 -->
      <g style="fill: #a9a9a9" transform="translate(450.694562 334.998438) scale(0.1 -0.1)">
       <use xlink:href="#DejaVuSans-32"/>
       <use xlink:href="#DejaVuSans-30" x="63.623047"/>
       <use xlink:href="#DejaVuSans-32" x="127.246094"/>
       <use xlink:href="#DejaVuSans-32" x="190.869141"/>
       <use xlink:href="#DejaVuSans-2d" x="254.492188"/>
       <use xlink:href="#DejaVuSans-31" x="290.576172"/>
       <use xlink:href="#DejaVuSans-30" x="354.199219"/>
      </g>
     </g>
    </g>
    <g id="xtick_7">
     <g id="line2d_13">
      <path d="M 542.207543 320.4 
L 542.207543 43.2 
" clip-path="url(#p3d52cc2c9c)" style="fill: none; stroke-dasharray: 5.12,1.28,0.8,1.28; stroke-dashoffset: 0; stroke: #b0b0b0; stroke-width: 0.8"/>
     </g>
     <g id="line2d_14">
      <g>
       <use xlink:href="#mc9176a6875" x="542.207543" y="320.4" style="fill: #a9a9a9; stroke: #a9a9a9; stroke-width: 0.8"/>
      </g>
     </g>
     <g id="text_7">
      <!-- 2023-01 -->
      <g style="fill: #a9a9a9" transform="translate(521.316137 334.998438) scale(0.1 -0.1)">
       <defs>
        <path id="DejaVuSans-33" d="M 2597 2516 
Q 3050 2419 3304 2112 
Q 3559 1806 3559 1356 
Q 3559 666 3084 287 
Q 2609 -91 1734 -91 
Q 1441 -91 1130 -33 
Q 819 25 488 141 
L 488 750 
Q 750 597 1062 519 
Q 1375 441 1716 441 
Q 2309 441 2620 675 
Q 2931 909 2931 1356 
Q 2931 1769 2642 2001 
Q 2353 2234 1838 2234 
L 1294 2234 
L 1294 2753 
L 1863 2753 
Q 2328 2753 2575 2939 
Q 2822 3125 2822 3475 
Q 2822 3834 2567 4026 
Q 2313 4219 1838 4219 
Q 1578 4219 1281 4162 
Q 984 4106 628 3988 
L 628 4550 
Q 988 4650 1302 4700 
Q 1616 4750 1894 4750 
Q 2613 4750 3031 4423 
Q 3450 4097 3450 3541 
Q 3450 3153 3228 2886 
Q 3006 2619 2597 2516 
z
" transform="scale(0.015625)"/>
       </defs>
       <use xlink:href="#DejaVuSans-32"/>
       <use xlink:href="#DejaVuSans-30" x="63.623047"/>
       <use xlink:href="#DejaVuSans-32" x="127.246094"/>
       <use xlink:href="#DejaVuSans-33" x="190.869141"/>
       <use xlink:href="#DejaVuSans-2d" x="254.492188"/>
       <use xlink:href="#DejaVuSans-30" x="290.576172"/>
       <use xlink:href="#DejaVuSans-31" x="354.199219"/>
      </g>
     </g>
    </g>
    <g id="xtick_8">
     <g id="line2d_15">
      <path d="M 611.293867 320.4 
L 611.293867 43.2 
" clip-path="url(#p3d52cc2c9c)" style="fill: none; stroke-dasharray: 5.12,1.28,0.8,1.28; stroke-dashoffset: 0; stroke: #b0b0b0; stroke-width: 0.8"/>
     </g>
     <g id="line2d_16">
      <g>
       <use xlink:href="#mc9176a6875" x="611.293867" y="320.4" style="fill: #a9a9a9; stroke: #a9a9a9; stroke-width: 0.8"/>
      </g>
     </g>
     <g id="text_8">
      <!-- 2023-04 -->
      <g style="fill: #a9a9a9" transform="translate(590.402461 334.998438) scale(0.1 -0.1)">
       <use xlink:href="#DejaVuSans-32"/>
       <use xlink:href="#DejaVuSans-30" x="63.623047"/>
       <use xlink:href="#DejaVuSans-32" x="127.246094"/>
       <use xlink:href="#DejaVuSans-33" x="190.869141"/>
       <use xlink:href="#DejaVuSans-2d" x="254.492188"/>
       <use xlink:href="#DejaVuSans-30" x="290.576172"/>
       <use xlink:href="#DejaVuSans-34" x="354.199219"/>
      </g>
     </g>
    </g>
    <g id="xtick_9">
     <g id="line2d_17">
      <path d="M 681.147816 320.4 
L 681.147816 43.2 
" clip-path="url(#p3d52cc2c9c)" style="fill: none; stroke-dasharray: 5.12,1.28,0.8,1.28; stroke-dashoffset: 0; stroke: #b0b0b0; stroke-width: 0.8"/>
     </g>
     <g id="line2d_18">
      <g>
       <use xlink:href="#mc9176a6875" x="681.147816" y="320.4" style="fill: #a9a9a9; stroke: #a9a9a9; stroke-width: 0.8"/>
      </g>
     </g>
     <g id="text_9">
      <!-- 2023-07 -->
      <g style="fill: #a9a9a9" transform="translate(660.25641 334.998438) scale(0.1 -0.1)">
       <use xlink:href="#DejaVuSans-32"/>
       <use xlink:href="#DejaVuSans-30" x="63.623047"/>
       <use xlink:href="#DejaVuSans-32" x="127.246094"/>
       <use xlink:href="#DejaVuSans-33" x="190.869141"/>
       <use xlink:href="#DejaVuSans-2d" x="254.492188"/>
       <use xlink:href="#DejaVuSans-30" x="290.576172"/>
       <use xlink:href="#DejaVuSans-37" x="354.199219"/>
      </g>
     </g>
    </g>
    <g id="xtick_10">
     <g id="line2d_19">
      <path d="M 751.769391 320.4 
L 751.769391 43.2 
" clip-path="url(#p3d52cc2c9c)" style="fill: none; stroke-dasharray: 5.12,1.28,0.8,1.28; stroke-dashoffset: 0; stroke: #b0b0b0; stroke-width: 0.8"/>
     </g>
     <g id="line2d_20">
      <g>
       <use xlink:href="#mc9176a6875" x="751.769391" y="320.4" style="fill: #a9a9a9; stroke: #a9a9a9; stroke-width: 0.8"/>
      </g>
     </g>
     <g id="text_10">
      <!-- 2023-10 -->
      <g style="fill: #a9a9a9" transform="translate(730.877985 334.998438) scale(0.1 -0.1)">
       <use xlink:href="#DejaVuSans-32"/>
       <use xlink:href="#DejaVuSans-30" x="63.623047"/>
       <use xlink:href="#DejaVuSans-32" x="127.246094"/>
       <use xlink:href="#DejaVuSans-33" x="190.869141"/>
       <use xlink:href="#DejaVuSans-2d" x="254.492188"/>
       <use xlink:href="#DejaVuSans-31" x="290.576172"/>
       <use xlink:href="#DejaVuSans-30" x="354.199219"/>
      </g>
     </g>
    </g>
   </g>
   <g id="matplotlib.axis_2">
    <g id="ytick_1">
     <g id="line2d_21">
      <path d="M 108 307.851639 
L 777.6 307.851639 
" clip-path="url(#p3d52cc2c9c)" style="fill: none; stroke-dasharray: 5.12,1.28,0.8,1.28; stroke-dashoffset: 0; stroke: #b0b0b0; stroke-width: 0.8"/>
     </g>
     <g id="line2d_22">
      <defs>
       <path id="mcb7feaf169" d="M 0 0 
L -3.5 0 
" style="stroke: #a9a9a9; stroke-width: 0.8"/>
      </defs>
      <g>
       <use xlink:href="#mcb7feaf169" x="108" y="307.851639" style="fill: #a9a9a9; stroke: #a9a9a9; stroke-width: 0.8"/>
      </g>
     </g>
     <g id="text_11">
      <!-- 0 -->
      <g style="fill: #a9a9a9" transform="translate(94.6375 311.650858) scale(0.1 -0.1)">
       <use xlink:href="#DejaVuSans-30"/>
      </g>
     </g>
    </g>
    <g id="ytick_2">
     <g id="line2d_23">
      <path d="M 108 276.868033 
L 777.6 276.868033 
" clip-path="url(#p3d52cc2c9c)" style="fill: none; stroke-dasharray: 5.12,1.28,0.8,1.28; stroke-dashoffset: 0; stroke: #b0b0b0; stroke-width: 0.8"/>
     </g>
     <g id="line2d_24">
      <g>
       <use xlink:href="#mcb7feaf169" x="108" y="276.868033" style="fill: #a9a9a9; stroke: #a9a9a9; stroke-width: 0.8"/>
      </g>
     </g>
     <g id="text_12">
      <!-- 600 -->
      <g style="fill: #a9a9a9" transform="translate(81.9125 280.667252) scale(0.1 -0.1)">
       <defs>
        <path id="DejaVuSans-36" d="M 2113 2584 
Q 1688 2584 1439 2293 
Q 1191 2003 1191 1497 
Q 1191 994 1439 701 
Q 1688 409 2113 409 
Q 2538 409 2786 701 
Q 3034 994 3034 1497 
Q 3034 2003 2786 2293 
Q 2538 2584 2113 2584 
z
M 3366 4563 
L 3366 3988 
Q 3128 4100 2886 4159 
Q 2644 4219 2406 4219 
Q 1781 4219 1451 3797 
Q 1122 3375 1075 2522 
Q 1259 2794 1537 2939 
Q 1816 3084 2150 3084 
Q 2853 3084 3261 2657 
Q 3669 2231 3669 1497 
Q 3669 778 3244 343 
Q 2819 -91 2113 -91 
Q 1303 -91 875 529 
Q 447 1150 447 2328 
Q 447 3434 972 4092 
Q 1497 4750 2381 4750 
Q 2619 4750 2861 4703 
Q 3103 4656 3366 4563 
z
" transform="scale(0.015625)"/>
       </defs>
       <use xlink:href="#DejaVuSans-36"/>
       <use xlink:href="#DejaVuSans-30" x="63.623047"/>
       <use xlink:href="#DejaVuSans-30" x="127.246094"/>
      </g>
     </g>
    </g>
    <g id="ytick_3">
     <g id="line2d_25">
      <path d="M 108 245.884426 
L 777.6 245.884426 
" clip-path="url(#p3d52cc2c9c)" style="fill: none; stroke-dasharray: 5.12,1.28,0.8,1.28; stroke-dashoffset: 0; stroke: #b0b0b0; stroke-width: 0.8"/>
     </g>
     <g id="line2d_26">
      <g>
       <use xlink:href="#mcb7feaf169" x="108" y="245.884426" style="fill: #a9a9a9; stroke: #a9a9a9; stroke-width: 0.8"/>
      </g>
     </g>
     <g id="text_13">
      <!-- 1200 -->
      <g style="fill: #a9a9a9" transform="translate(75.55 249.683645) scale(0.1 -0.1)">
       <use xlink:href="#DejaVuSans-31"/>
       <use xlink:href="#DejaVuSans-32" x="63.623047"/>
       <use xlink:href="#DejaVuSans-30" x="127.246094"/>
       <use xlink:href="#DejaVuSans-30" x="190.869141"/>
      </g>
     </g>
    </g>
    <g id="ytick_4">
     <g id="line2d_27">
      <path d="M 108 214.90082 
L 777.6 214.90082 
" clip-path="url(#p3d52cc2c9c)" style="fill: none; stroke-dasharray: 5.12,1.28,0.8,1.28; stroke-dashoffset: 0; stroke: #b0b0b0; stroke-width: 0.8"/>
     </g>
     <g id="line2d_28">
      <g>
       <use xlink:href="#mcb7feaf169" x="108" y="214.90082" style="fill: #a9a9a9; stroke: #a9a9a9; stroke-width: 0.8"/>
      </g>
     </g>
     <g id="text_14">
      <!-- 1800 -->
      <g style="fill: #a9a9a9" transform="translate(75.55 218.700038) scale(0.1 -0.1)">
       <defs>
        <path id="DejaVuSans-38" d="M 2034 2216 
Q 1584 2216 1326 1975 
Q 1069 1734 1069 1313 
Q 1069 891 1326 650 
Q 1584 409 2034 409 
Q 2484 409 2743 651 
Q 3003 894 3003 1313 
Q 3003 1734 2745 1975 
Q 2488 2216 2034 2216 
z
M 1403 2484 
Q 997 2584 770 2862 
Q 544 3141 544 3541 
Q 544 4100 942 4425 
Q 1341 4750 2034 4750 
Q 2731 4750 3128 4425 
Q 3525 4100 3525 3541 
Q 3525 3141 3298 2862 
Q 3072 2584 2669 2484 
Q 3125 2378 3379 2068 
Q 3634 1759 3634 1313 
Q 3634 634 3220 271 
Q 2806 -91 2034 -91 
Q 1263 -91 848 271 
Q 434 634 434 1313 
Q 434 1759 690 2068 
Q 947 2378 1403 2484 
z
M 1172 3481 
Q 1172 3119 1398 2916 
Q 1625 2713 2034 2713 
Q 2441 2713 2670 2916 
Q 2900 3119 2900 3481 
Q 2900 3844 2670 4047 
Q 2441 4250 2034 4250 
Q 1625 4250 1398 4047 
Q 1172 3844 1172 3481 
z
" transform="scale(0.015625)"/>
       </defs>
       <use xlink:href="#DejaVuSans-31"/>
       <use xlink:href="#DejaVuSans-38" x="63.623047"/>
       <use xlink:href="#DejaVuSans-30" x="127.246094"/>
       <use xlink:href="#DejaVuSans-30" x="190.869141"/>
      </g>
     </g>
    </g>
    <g id="ytick_5">
     <g id="line2d_29">
      <path d="M 108 183.917213 
L 777.6 183.917213 
" clip-path="url(#p3d52cc2c9c)" style="fill: none; stroke-dasharray: 5.12,1.28,0.8,1.28; stroke-dashoffset: 0; stroke: #b0b0b0; stroke-width: 0.8"/>
     </g>
     <g id="line2d_30">
      <g>
       <use xlink:href="#mcb7feaf169" x="108" y="183.917213" style="fill: #a9a9a9; stroke: #a9a9a9; stroke-width: 0.8"/>
      </g>
     </g>
     <g id="text_15">
      <!-- 2400 -->
      <g style="fill: #a9a9a9" transform="translate(75.55 187.716432) scale(0.1 -0.1)">
       <use xlink:href="#DejaVuSans-32"/>
       <use xlink:href="#DejaVuSans-34" x="63.623047"/>
       <use xlink:href="#DejaVuSans-30" x="127.246094"/>
       <use xlink:href="#DejaVuSans-30" x="190.869141"/>
      </g>
     </g>
    </g>
    <g id="ytick_6">
     <g id="line2d_31">
      <path d="M 108 152.933607 
L 777.6 152.933607 
" clip-path="url(#p3d52cc2c9c)" style="fill: none; stroke-dasharray: 5.12,1.28,0.8,1.28; stroke-dashoffset: 0; stroke: #b0b0b0; stroke-width: 0.8"/>
     </g>
     <g id="line2d_32">
      <g>
       <use xlink:href="#mcb7feaf169" x="108" y="152.933607" style="fill: #a9a9a9; stroke: #a9a9a9; stroke-width: 0.8"/>
      </g>
     </g>
     <g id="text_16">
      <!-- 3000 -->
      <g style="fill: #a9a9a9" transform="translate(75.55 156.732825) scale(0.1 -0.1)">
       <use xlink:href="#DejaVuSans-33"/>
       <use xlink:href="#DejaVuSans-30" x="63.623047"/>
       <use xlink:href="#DejaVuSans-30" x="127.246094"/>
       <use xlink:href="#DejaVuSans-30" x="190.869141"/>
      </g>
     </g>
    </g>
    <g id="ytick_7">
     <g id="line2d_33">
      <path d="M 108 121.95 
L 777.6 121.95 
" clip-path="url(#p3d52cc2c9c)" style="fill: none; stroke-dasharray: 5.12,1.28,0.8,1.28; stroke-dashoffset: 0; stroke: #b0b0b0; stroke-width: 0.8"/>
     </g>
     <g id="line2d_34">
      <g>
       <use xlink:href="#mcb7feaf169" x="108" y="121.95" style="fill: #a9a9a9; stroke: #a9a9a9; stroke-width: 0.8"/>
      </g>
     </g>
     <g id="text_17">
      <!-- 3600 -->
      <g style="fill: #a9a9a9" transform="translate(75.55 125.749219) scale(0.1 -0.1)">
       <use xlink:href="#DejaVuSans-33"/>
       <use xlink:href="#DejaVuSans-36" x="63.623047"/>
       <use xlink:href="#DejaVuSans-30" x="127.246094"/>
       <use xlink:href="#DejaVuSans-30" x="190.869141"/>
      </g>
     </g>
    </g>
    <g id="ytick_8">
     <g id="line2d_35">
      <path d="M 108 90.966393 
L 777.6 90.966393 
" clip-path="url(#p3d52cc2c9c)" style="fill: none; stroke-dasharray: 5.12,1.28,0.8,1.28; stroke-dashoffset: 0; stroke: #b0b0b0; stroke-width: 0.8"/>
     </g>
     <g id="line2d_36">
      <g>
       <use xlink:href="#mcb7feaf169" x="108" y="90.966393" style="fill: #a9a9a9; stroke: #a9a9a9; stroke-width: 0.8"/>
      </g>
     </g>
     <g id="text_18">
      <!-- 4200 -->
      <g style="fill: #a9a9a9" transform="translate(75.55 94.765612) scale(0.1 -0.1)">
       <use xlink:href="#DejaVuSans-34"/>
       <use xlink:href="#DejaVuSans-32" x="63.623047"/>
       <use xlink:href="#DejaVuSans-30" x="127.246094"/>
       <use xlink:href="#DejaVuSans-30" x="190.869141"/>
      </g>
     </g>
    </g>
    <g id="ytick_9">
     <g id="line2d_37">
      <path d="M 108 59.982787 
L 777.6 59.982787 
" clip-path="url(#p3d52cc2c9c)" style="fill: none; stroke-dasharray: 5.12,1.28,0.8,1.28; stroke-dashoffset: 0; stroke: #b0b0b0; stroke-width: 0.8"/>
     </g>
     <g id="line2d_38">
      <g>
       <use xlink:href="#mcb7feaf169" x="108" y="59.982787" style="fill: #a9a9a9; stroke: #a9a9a9; stroke-width: 0.8"/>
      </g>
     </g>
     <g id="text_19">
      <!-- 4800 -->
      <g style="fill: #a9a9a9" transform="translate(75.55 63.782006) scale(0.1 -0.1)">
       <use xlink:href="#DejaVuSans-34"/>
       <use xlink:href="#DejaVuSans-38" x="63.623047"/>
       <use xlink:href="#DejaVuSans-30" x="127.246094"/>
       <use xlink:href="#DejaVuSans-30" x="190.869141"/>
      </g>
     </g>
    </g>
   </g>
   <g id="line2d_39">
    <path d="M 138.436364 307.696721 
L 143.042119 307.335246 
L 143.809744 307.02541 
L 146.112622 306.767213 
L 151.486003 305.786066 
L 155.324132 305.42459 
L 156.091757 305.063115 
L 156.859383 304.856557 
L 157.627009 303.927049 
L 158.394635 303.410656 
L 159.162261 301.758197 
L 159.929887 301.654918 
L 160.697512 301.086885 
L 162.232764 300.363934 
L 163.768016 299.227869 
L 164.535641 298.504918 
L 166.070893 297.781967 
L 166.838519 297.472131 
L 167.606145 296.904098 
L 170.676648 295.613115 
L 171.444274 294.42541 
L 172.2119 293.805738 
L 173.747151 292.979508 
L 181.423409 291.895082 
L 182.191035 291.533607 
L 187.564416 291.120492 
L 189.099668 290.707377 
L 190.634919 290.397541 
L 196.775926 289.622951 
L 197.543552 289.209836 
L 198.311177 289.106557 
L 199.078803 288.796721 
L 200.614055 288.538525 
L 201.381681 288.486885 
L 202.149306 288.228689 
L 205.21981 287.763934 
L 206.755061 287.35082 
L 209.057939 287.144262 
L 210.59319 286.989344 
L 211.360816 286.782787 
L 212.128442 286.731148 
L 214.43132 286.059836 
L 219.037074 285.388525 
L 219.8047 285.130328 
L 220.572326 284.097541 
L 222.875203 283.271311 
L 225.178081 282.651639 
L 225.945707 282.290164 
L 226.713333 282.238525 
L 230.551462 281.205738 
L 232.086713 281.102459 
L 232.854339 280.99918 
L 235.157217 280.327869 
L 238.22772 279.604918 
L 238.995346 279.295082 
L 239.762971 279.191803 
L 240.530597 278.830328 
L 248.206855 277.694262 
L 252.044985 276.609836 
L 252.81261 276.145082 
L 255.883114 275.318852 
L 257.418365 274.440984 
L 258.185991 273.92459 
L 258.953617 273.821311 
L 259.721243 273.563115 
L 262.02412 273.15 
L 262.791746 272.788525 
L 264.326998 272.530328 
L 265.094623 272.117213 
L 266.629875 271.652459 
L 267.397501 271.54918 
L 268.932752 271.136066 
L 270.468004 270.77459 
L 271.23563 270.671311 
L 272.770882 270.051639 
L 273.538507 269.896721 
L 274.306133 269.586885 
L 275.073759 269.483607 
L 275.841385 269.122131 
L 276.609011 268.915574 
L 278.144262 268.812295 
L 279.679514 268.295902 
L 281.214766 268.192623 
L 281.982391 267.831148 
L 285.052895 267.314754 
L 288.123398 267.056557 
L 288.891024 266.901639 
L 290.426275 266.178689 
L 298.870159 262.718852 
L 299.637785 262.305738 
L 300.405411 261.479508 
L 301.173037 260.240164 
L 301.940663 259.259016 
L 302.708288 259.052459 
L 303.475914 259.052459 
L 305.011166 257.916393 
L 305.778792 257.709836 
L 306.546418 257.296721 
L 307.314043 257.141803 
L 308.081669 256.470492 
L 308.849295 256.263934 
L 311.152172 255.179508 
L 311.919798 254.25 
L 312.687424 253.113934 
L 313.45505 252.64918 
L 314.222676 251.409836 
L 314.990302 250.635246 
L 315.757927 250.27377 
L 316.525553 250.067213 
L 318.060805 249.137705 
L 318.828431 248.77623 
L 321.898934 246.504098 
L 322.66656 245.419672 
L 323.434185 243.663934 
L 324.201811 242.527869 
L 324.969437 241.959836 
L 325.737063 241.65 
L 328.807566 239.068033 
L 329.575192 238.551639 
L 331.110444 237.209016 
L 331.878069 236.12459 
L 332.645695 235.401639 
L 334.180947 234.368852 
L 336.483824 232.819672 
L 337.25145 232.148361 
L 338.019076 231.941803 
L 340.321953 230.754098 
L 341.857205 229.87623 
L 342.624831 229.566393 
L 344.160083 228.172131 
L 344.927708 227.294262 
L 346.46296 226.261475 
L 347.230586 226.054918 
L 347.998212 225.693443 
L 348.765837 225.12541 
L 350.301089 224.29918 
L 351.068715 224.195902 
L 352.603967 223.369672 
L 353.371592 222.956557 
L 354.139218 222.181967 
L 354.906844 221.717213 
L 355.67447 221.459016 
L 356.442096 220.942623 
L 359.512599 219.393443 
L 360.280225 218.722131 
L 363.350728 217.689344 
L 364.118354 217.172951 
L 364.88598 217.018033 
L 366.421231 216.501639 
L 368.724109 215.62377 
L 371.026986 214.797541 
L 372.562238 214.539344 
L 374.097489 213.248361 
L 375.632741 212.52541 
L 377.935618 211.234426 
L 379.47087 210.821311 
L 380.238496 210.356557 
L 381.006122 210.15 
L 383.308999 208.704098 
L 385.611877 208.187705 
L 387.914754 207.361475 
L 389.450006 206.483607 
L 390.217632 206.380328 
L 390.985257 206.122131 
L 392.520509 205.812295 
L 394.823386 204.159836 
L 397.126264 203.643443 
L 397.89389 203.385246 
L 398.661516 202.817213 
L 403.26727 201.371311 
L 404.034896 201.319672 
L 409.408277 199.460656 
L 410.175903 199.09918 
L 412.47878 198.582787 
L 414.014032 198.221311 
L 414.781658 197.859836 
L 415.549284 197.704918 
L 417.852161 196.672131 
L 420.155038 195.587705 
L 420.922664 195.071311 
L 421.69029 194.864754 
L 423.993167 193.677049 
L 425.528419 193.315574 
L 427.063671 192.540984 
L 428.598922 192.127869 
L 429.366548 192.02459 
L 430.134174 191.508197 
L 430.9018 191.146721 
L 431.669426 190.991803 
L 433.204677 190.372131 
L 433.972303 190.217213 
L 434.739929 189.804098 
L 437.810432 189.339344 
L 439.345684 188.616393 
L 440.11331 187.996721 
L 440.880935 186.654098 
L 442.416187 186.344262 
L 443.183813 186.189344 
L 446.254316 184.640164 
L 447.021942 184.485246 
L 453.162949 181.541803 
L 455.465826 181.077049 
L 457.001078 180.354098 
L 457.768703 180.044262 
L 458.536329 179.940984 
L 461.606833 178.598361 
L 463.142084 177.565574 
L 463.90971 177.204098 
L 464.677336 177.10082 
L 465.444962 176.842623 
L 466.212587 176.790984 
L 469.283091 175.809836 
L 470.050716 175.758197 
L 470.818342 175.190164 
L 472.353594 174.67377 
L 474.656471 173.95082 
L 475.424097 173.486066 
L 476.191723 173.279508 
L 476.959349 172.763115 
L 477.726975 172.453279 
L 478.4946 171.988525 
L 480.029852 171.420492 
L 482.33273 170.697541 
L 483.100355 170.336066 
L 483.867981 169.768033 
L 484.635607 168.993443 
L 485.403233 168.528689 
L 486.170859 168.37377 
L 487.70611 167.237705 
L 488.473736 167.082787 
L 489.241362 165.946721 
L 490.008988 165.636885 
L 490.776614 165.068852 
L 491.544239 164.965574 
L 492.311865 164.44918 
L 493.079491 164.087705 
L 493.847117 163.932787 
L 494.614743 163.622951 
L 495.382368 163.003279 
L 496.149994 162.745082 
L 498.452872 161.247541 
L 501.523375 159.75 
L 502.291001 159.646721 
L 503.826252 158.97541 
L 504.593878 158.510656 
L 505.361504 157.271311 
L 506.12913 156.496721 
L 506.896756 156.083607 
L 507.664382 155.928689 
L 509.199633 154.99918 
L 509.967259 154.844262 
L 511.502511 154.121311 
L 513.805388 153.191803 
L 515.34064 152.159016 
L 516.875891 150.558197 
L 518.411143 149.628689 
L 519.178769 149.163934 
L 519.946395 148.389344 
L 523.016898 146.220492 
L 523.784524 145.394262 
L 524.552149 144.82623 
L 526.087401 144.309836 
L 526.855027 143.586885 
L 528.390279 142.812295 
L 529.157904 142.605738 
L 529.92553 142.037705 
L 530.693156 141.831148 
L 532.996033 140.643443 
L 533.763659 140.07541 
L 535.298911 139.455738 
L 536.066537 139.30082 
L 536.834163 138.836066 
L 542.207543 136.977049 
L 542.975169 136.305738 
L 545.278047 135.479508 
L 546.813298 135.014754 
L 547.580924 134.446721 
L 549.883801 133.413934 
L 550.651427 132.845902 
L 551.419053 132.432787 
L 552.954305 129.489344 
L 554.489556 127.733607 
L 555.257182 127.217213 
L 557.56006 126.236066 
L 558.327685 125.977869 
L 559.095311 125.87459 
L 559.862937 125.461475 
L 562.165815 124.738525 
L 564.468692 123.809016 
L 566.003944 122.827869 
L 568.306821 121.795082 
L 572.14495 119.62623 
L 572.912576 118.851639 
L 574.447828 118.02541 
L 575.215453 117.612295 
L 575.983079 117.354098 
L 576.750705 116.837705 
L 578.285957 116.114754 
L 579.053582 115.65 
L 579.821208 115.340164 
L 580.588834 114.87541 
L 581.35646 114.668852 
L 582.124086 114.10082 
L 582.891712 113.790984 
L 583.659337 113.636066 
L 585.194589 113.016393 
L 587.497466 112.190164 
L 588.265092 111.622131 
L 589.800344 111.209016 
L 591.335596 110.640984 
L 592.103221 110.021311 
L 593.638473 109.556557 
L 594.406099 109.195082 
L 595.173725 108.988525 
L 596.708976 107.955738 
L 598.244228 107.284426 
L 599.77948 106.148361 
L 601.314731 105.631967 
L 602.082357 104.960656 
L 602.849983 104.805738 
L 603.617609 104.134426 
L 605.15286 103.256557 
L 606.688112 102.636885 
L 607.455738 101.862295 
L 612.061493 100.209836 
L 614.36437 99.228689 
L 616.667248 98.557377 
L 618.202499 98.35082 
L 618.970125 98.040984 
L 619.737751 97.886066 
L 621.273002 97.266393 
L 622.040628 97.214754 
L 624.343506 96.440164 
L 625.878757 95.510656 
L 627.414009 94.477869 
L 632.019764 92.257377 
L 634.322641 90.759836 
L 635.857893 90.398361 
L 637.393145 89.365574 
L 640.463648 88.436066 
L 641.231274 88.12623 
L 642.766525 87.764754 
L 646.604654 86.52541 
L 648.907532 86.112295 
L 649.675158 85.905738 
L 650.442783 85.544262 
L 651.210409 85.440984 
L 652.745661 84.821311 
L 653.513287 84.718033 
L 654.280913 84.356557 
L 655.816164 84.046721 
L 656.58379 83.685246 
L 658.886667 83.168852 
L 660.421919 82.859016 
L 667.330551 81.464754 
L 668.098177 81.154918 
L 668.865803 81.103279 
L 671.16868 80.483607 
L 671.936306 80.070492 
L 673.471558 79.554098 
L 674.239184 79.502459 
L 678.077313 78.366393 
L 681.915442 77.178689 
L 682.683068 76.972131 
L 683.450694 76.610656 
L 684.218319 76.610656 
L 685.753571 76.094262 
L 686.521197 75.319672 
L 687.288823 74.958197 
L 688.824074 74.493443 
L 691.894578 73.357377 
L 692.662203 73.202459 
L 693.429829 72.737705 
L 694.197455 72.582787 
L 694.965081 72.066393 
L 698.80321 70.930328 
L 699.570836 70.465574 
L 700.338462 70.259016 
L 701.106087 69.639344 
L 703.408965 69.22623 
L 704.944216 68.4 
L 705.711842 67.522131 
L 707.247094 67.212295 
L 711.852849 66.179508 
L 713.3881 65.766393 
L 714.923352 65.714754 
L 715.690978 65.353279 
L 717.993855 64.991803 
L 718.761481 64.785246 
L 719.529107 64.42377 
L 721.831984 64.113934 
L 723.367236 63.545902 
L 724.134862 63.184426 
L 724.902488 63.132787 
L 727.205365 62.616393 
L 728.740617 62.203279 
L 733.346372 60.912295 
L 734.113997 60.55082 
L 734.881623 60.447541 
L 735.649249 60.189344 
L 736.416875 59.72459 
L 738.719752 58.846721 
L 739.487378 58.278689 
L 741.02263 57.865574 
L 741.790256 57.555738 
L 743.325507 57.194262 
L 746.396011 55.8 
L 747.163636 55.8 
L 747.163636 55.8 
" clip-path="url(#p3d52cc2c9c)" style="fill: none; stroke: #1f77b4; stroke-width: 1.5; stroke-linecap: square"/>
   </g>
   <g id="line2d_40">
    <path d="M 139.203989 307.8 
L 141.506867 307.696721 
L 143.042119 307.593443 
L 148.415499 307.490164 
L 152.253628 307.335246 
L 155.324132 307.335246 
L 156.091757 307.128689 
L 158.394635 307.077049 
L 163.00039 306.560656 
L 174.514777 305.889344 
L 180.655784 305.786066 
L 184.493913 305.631148 
L 193.705422 305.527869 
L 197.543552 305.372951 
L 202.149306 305.269672 
L 205.21981 305.166393 
L 212.128442 305.063115 
L 214.43132 305.011475 
L 216.734197 304.959836 
L 219.037074 304.701639 
L 223.642829 304.65 
L 225.178081 304.546721 
L 230.551462 304.443443 
L 238.995346 303.978689 
L 244.368726 303.87541 
L 245.903978 303.772131 
L 248.206855 303.668852 
L 252.81261 303.462295 
L 255.883114 303.410656 
L 258.185991 303.204098 
L 271.23563 302.429508 
L 273.538507 302.32623 
L 278.911888 302.068033 
L 281.214766 301.964754 
L 288.891024 301.551639 
L 297.334908 301.448361 
L 300.405411 301.138525 
L 301.940663 301.035246 
L 310.384547 300.467213 
L 311.152172 300.260656 
L 313.45505 300.054098 
L 314.990302 299.692623 
L 317.293179 299.640984 
L 319.596056 299.537705 
L 325.737063 298.763115 
L 329.575192 298.659836 
L 339.554328 297.885246 
L 344.160083 297.368852 
L 346.46296 297.317213 
L 347.998212 297.213934 
L 351.068715 297.110656 
L 352.603967 297.007377 
L 356.442096 296.645902 
L 357.209721 296.439344 
L 361.815476 296.232787 
L 365.653605 296.129508 
L 376.400367 295.509836 
L 377.935618 295.406557 
L 387.914754 294.838525 
L 393.288135 294.735246 
L 394.055761 294.580328 
L 400.196767 294.477049 
L 405.570148 294.218852 
L 414.014032 294.115574 
L 419.387413 293.857377 
L 425.528419 293.754098 
L 432.437051 293.392623 
L 437.042806 293.289344 
L 451.627697 292.411475 
L 457.768703 292.308197 
L 461.606833 291.946721 
L 463.142084 291.791803 
L 466.980213 291.740164 
L 470.050716 291.430328 
L 477.726975 291.017213 
L 482.33273 290.913934 
L 484.635607 290.862295 
L 486.938484 290.810656 
L 489.241362 290.604098 
L 495.382368 290.50082 
L 496.91762 290.242623 
L 498.452872 290.139344 
L 501.523375 290.036066 
L 503.826252 289.932787 
L 505.361504 289.829508 
L 512.270136 289.72623 
L 513.805388 289.571311 
L 516.875891 289.468033 
L 517.643517 289.313115 
L 519.178769 289.261475 
L 519.946395 289.106557 
L 522.249272 289.003279 
L 535.298911 288.228689 
L 537.601788 288.12541 
L 541.439917 287.970492 
L 552.186679 287.867213 
L 557.56006 287.609016 
L 563.701066 287.505738 
L 566.771569 287.402459 
L 569.842073 287.35082 
L 571.377324 287.195902 
L 574.447828 287.092623 
L 582.124086 286.679508 
L 586.729841 286.627869 
L 589.032718 286.421311 
L 591.335596 286.369672 
L 596.708976 286.266393 
L 599.77948 286.163115 
L 608.990989 286.059836 
L 612.829118 285.904918 
L 617.434873 285.801639 
L 619.737751 285.543443 
L 624.343506 285.491803 
L 625.111131 285.336885 
L 626.646383 285.233607 
L 629.716886 285.130328 
L 638.928396 285.027049 
L 642.766525 284.872131 
L 655.816164 284.820492 
L 657.351416 284.717213 
L 659.654293 284.665574 
L 669.633429 284.562295 
L 671.16868 284.459016 
L 679.612564 284.355738 
L 682.683068 284.252459 
L 691.894578 284.20082 
L 693.429829 284.097541 
L 704.944216 284.045902 
L 707.247094 283.839344 
L 720.296733 283.736066 
L 722.59961 283.684426 
L 742.557881 283.581148 
L 745.628385 283.477869 
L 747.163636 283.477869 
L 747.163636 283.477869 
" clip-path="url(#p3d52cc2c9c)" style="fill: none; stroke: #ff7f0e; stroke-width: 1.5; stroke-linecap: square"/>
   </g>
   <g id="patch_3">
    <path d="M 108 320.4 
L 108 43.2 
" style="fill: none; stroke: #a9a9a9; stroke-width: 0.8; stroke-linejoin: miter; stroke-linecap: square"/>
   </g>
   <g id="patch_4">
    <path d="M 777.6 320.4 
L 777.6 43.2 
" style="fill: none"/>
   </g>
   <g id="patch_5">
    <path d="M 108 320.4 
L 777.6 320.4 
" style="fill: none; stroke: #a9a9a9; stroke-width: 0.8; stroke-linejoin: miter; stroke-linecap: square"/>
   </g>
   <g id="patch_6">
    <path d="M 108 43.2 
L 777.6 43.2 
" style="fill: none"/>
   </g>
   <g id="text_20">
    <!-- get_subscribe history -->
    <g style="fill: #a9a9a9" transform="translate(378.6075 37.2) scale(0.12 -0.12)">
     <defs>
      <path id="DejaVuSans-67" d="M 2906 1791 
Q 2906 2416 2648 2759 
Q 2391 3103 1925 3103 
Q 1463 3103 1205 2759 
Q 947 2416 947 1791 
Q 947 1169 1205 825 
Q 1463 481 1925 481 
Q 2391 481 2648 825 
Q 2906 1169 2906 1791 
z
M 3481 434 
Q 3481 -459 3084 -895 
Q 2688 -1331 1869 -1331 
Q 1566 -1331 1297 -1286 
Q 1028 -1241 775 -1147 
L 775 -588 
Q 1028 -725 1275 -790 
Q 1522 -856 1778 -856 
Q 2344 -856 2625 -561 
Q 2906 -266 2906 331 
L 2906 616 
Q 2728 306 2450 153 
Q 2172 0 1784 0 
Q 1141 0 747 490 
Q 353 981 353 1791 
Q 353 2603 747 3093 
Q 1141 3584 1784 3584 
Q 2172 3584 2450 3431 
Q 2728 3278 2906 2969 
L 2906 3500 
L 3481 3500 
L 3481 434 
z
" transform="scale(0.015625)"/>
      <path id="DejaVuSans-65" d="M 3597 1894 
L 3597 1613 
L 953 1613 
Q 991 1019 1311 708 
Q 1631 397 2203 397 
Q 2534 397 2845 478 
Q 3156 559 3463 722 
L 3463 178 
Q 3153 47 2828 -22 
Q 2503 -91 2169 -91 
Q 1331 -91 842 396 
Q 353 884 353 1716 
Q 353 2575 817 3079 
Q 1281 3584 2069 3584 
Q 2775 3584 3186 3129 
Q 3597 2675 3597 1894 
z
M 3022 2063 
Q 3016 2534 2758 2815 
Q 2500 3097 2075 3097 
Q 1594 3097 1305 2825 
Q 1016 2553 972 2059 
L 3022 2063 
z
" transform="scale(0.015625)"/>
      <path id="DejaVuSans-74" d="M 1172 4494 
L 1172 3500 
L 2356 3500 
L 2356 3053 
L 1172 3053 
L 1172 1153 
Q 1172 725 1289 603 
Q 1406 481 1766 481 
L 2356 481 
L 2356 0 
L 1766 0 
Q 1100 0 847 248 
Q 594 497 594 1153 
L 594 3053 
L 172 3053 
L 172 3500 
L 594 3500 
L 594 4494 
L 1172 4494 
z
" transform="scale(0.015625)"/>
      <path id="DejaVuSans-5f" d="M 3263 -1063 
L 3263 -1509 
L -63 -1509 
L -63 -1063 
L 3263 -1063 
z
" transform="scale(0.015625)"/>
      <path id="DejaVuSans-73" d="M 2834 3397 
L 2834 2853 
Q 2591 2978 2328 3040 
Q 2066 3103 1784 3103 
Q 1356 3103 1142 2972 
Q 928 2841 928 2578 
Q 928 2378 1081 2264 
Q 1234 2150 1697 2047 
L 1894 2003 
Q 2506 1872 2764 1633 
Q 3022 1394 3022 966 
Q 3022 478 2636 193 
Q 2250 -91 1575 -91 
Q 1294 -91 989 -36 
Q 684 19 347 128 
L 347 722 
Q 666 556 975 473 
Q 1284 391 1588 391 
Q 1994 391 2212 530 
Q 2431 669 2431 922 
Q 2431 1156 2273 1281 
Q 2116 1406 1581 1522 
L 1381 1569 
Q 847 1681 609 1914 
Q 372 2147 372 2553 
Q 372 3047 722 3315 
Q 1072 3584 1716 3584 
Q 2034 3584 2315 3537 
Q 2597 3491 2834 3397 
z
" transform="scale(0.015625)"/>
      <path id="DejaVuSans-75" d="M 544 1381 
L 544 3500 
L 1119 3500 
L 1119 1403 
Q 1119 906 1312 657 
Q 1506 409 1894 409 
Q 2359 409 2629 706 
Q 2900 1003 2900 1516 
L 2900 3500 
L 3475 3500 
L 3475 0 
L 2900 0 
L 2900 538 
Q 2691 219 2414 64 
Q 2138 -91 1772 -91 
Q 1169 -91 856 284 
Q 544 659 544 1381 
z
M 1991 3584 
L 1991 3584 
z
" transform="scale(0.015625)"/>
      <path id="DejaVuSans-62" d="M 3116 1747 
Q 3116 2381 2855 2742 
Q 2594 3103 2138 3103 
Q 1681 3103 1420 2742 
Q 1159 2381 1159 1747 
Q 1159 1113 1420 752 
Q 1681 391 2138 391 
Q 2594 391 2855 752 
Q 3116 1113 3116 1747 
z
M 1159 2969 
Q 1341 3281 1617 3432 
Q 1894 3584 2278 3584 
Q 2916 3584 3314 3078 
Q 3713 2572 3713 1747 
Q 3713 922 3314 415 
Q 2916 -91 2278 -91 
Q 1894 -91 1617 61 
Q 1341 213 1159 525 
L 1159 0 
L 581 0 
L 581 4863 
L 1159 4863 
L 1159 2969 
z
" transform="scale(0.015625)"/>
      <path id="DejaVuSans-63" d="M 3122 3366 
L 3122 2828 
Q 2878 2963 2633 3030 
Q 2388 3097 2138 3097 
Q 1578 3097 1268 2742 
Q 959 2388 959 1747 
Q 959 1106 1268 751 
Q 1578 397 2138 397 
Q 2388 397 2633 464 
Q 2878 531 3122 666 
L 3122 134 
Q 2881 22 2623 -34 
Q 2366 -91 2075 -91 
Q 1284 -91 818 406 
Q 353 903 353 1747 
Q 353 2603 823 3093 
Q 1294 3584 2113 3584 
Q 2378 3584 2631 3529 
Q 2884 3475 3122 3366 
z
" transform="scale(0.015625)"/>
      <path id="DejaVuSans-72" d="M 2631 2963 
Q 2534 3019 2420 3045 
Q 2306 3072 2169 3072 
Q 1681 3072 1420 2755 
Q 1159 2438 1159 1844 
L 1159 0 
L 581 0 
L 581 3500 
L 1159 3500 
L 1159 2956 
Q 1341 3275 1631 3429 
Q 1922 3584 2338 3584 
Q 2397 3584 2469 3576 
Q 2541 3569 2628 3553 
L 2631 2963 
z
" transform="scale(0.015625)"/>
      <path id="DejaVuSans-69" d="M 603 3500 
L 1178 3500 
L 1178 0 
L 603 0 
L 603 3500 
z
M 603 4863 
L 1178 4863 
L 1178 4134 
L 603 4134 
L 603 4863 
z
" transform="scale(0.015625)"/>
      <path id="DejaVuSans-20" transform="scale(0.015625)"/>
      <path id="DejaVuSans-68" d="M 3513 2113 
L 3513 0 
L 2938 0 
L 2938 2094 
Q 2938 2591 2744 2837 
Q 2550 3084 2163 3084 
Q 1697 3084 1428 2787 
Q 1159 2491 1159 1978 
L 1159 0 
L 581 0 
L 581 4863 
L 1159 4863 
L 1159 2956 
Q 1366 3272 1645 3428 
Q 1925 3584 2291 3584 
Q 2894 3584 3203 3211 
Q 3513 2838 3513 2113 
z
" transform="scale(0.015625)"/>
      <path id="DejaVuSans-6f" d="M 1959 3097 
Q 1497 3097 1228 2736 
Q 959 2375 959 1747 
Q 959 1119 1226 758 
Q 1494 397 1959 397 
Q 2419 397 2687 759 
Q 2956 1122 2956 1747 
Q 2956 2369 2687 2733 
Q 2419 3097 1959 3097 
z
M 1959 3584 
Q 2709 3584 3137 3096 
Q 3566 2609 3566 1747 
Q 3566 888 3137 398 
Q 2709 -91 1959 -91 
Q 1206 -91 779 398 
Q 353 888 353 1747 
Q 353 2609 779 3096 
Q 1206 3584 1959 3584 
z
" transform="scale(0.015625)"/>
      <path id="DejaVuSans-79" d="M 2059 -325 
Q 1816 -950 1584 -1140 
Q 1353 -1331 966 -1331 
L 506 -1331 
L 506 -850 
L 844 -850 
Q 1081 -850 1212 -737 
Q 1344 -625 1503 -206 
L 1606 56 
L 191 3500 
L 800 3500 
L 1894 763 
L 2988 3500 
L 3597 3500 
L 2059 -325 
z
" transform="scale(0.015625)"/>
     </defs>
     <use xlink:href="#DejaVuSans-67"/>
     <use xlink:href="#DejaVuSans-65" x="63.476562"/>
     <use xlink:href="#DejaVuSans-74" x="125"/>
     <use xlink:href="#DejaVuSans-5f" x="164.208984"/>
     <use xlink:href="#DejaVuSans-73" x="214.208984"/>
     <use xlink:href="#DejaVuSans-75" x="266.308594"/>
     <use xlink:href="#DejaVuSans-62" x="329.6875"/>
     <use xlink:href="#DejaVuSans-73" x="393.164062"/>
     <use xlink:href="#DejaVuSans-63" x="445.263672"/>
     <use xlink:href="#DejaVuSans-72" x="500.244141"/>
     <use xlink:href="#DejaVuSans-69" x="541.357422"/>
     <use xlink:href="#DejaVuSans-62" x="569.140625"/>
     <use xlink:href="#DejaVuSans-65" x="632.617188"/>
     <use xlink:href="#DejaVuSans-20" x="694.140625"/>
     <use xlink:href="#DejaVuSans-68" x="725.927734"/>
     <use xlink:href="#DejaVuSans-69" x="789.306641"/>
     <use xlink:href="#DejaVuSans-73" x="817.089844"/>
     <use xlink:href="#DejaVuSans-74" x="869.189453"/>
     <use xlink:href="#DejaVuSans-6f" x="908.398438"/>
     <use xlink:href="#DejaVuSans-72" x="969.580078"/>
     <use xlink:href="#DejaVuSans-79" x="1010.693359"/>
    </g>
   </g>
   <g id="legend_1">
    <g id="line2d_41">
     <path d="M 815.08 328.498438 
L 825.08 328.498438 
L 835.08 328.498438 
" style="fill: none; stroke: #1f77b4; stroke-width: 1.5; stroke-linecap: square"/>
    </g>
    <g id="text_21">
     <!-- star -->
     <g style="fill: #a9a9a9" transform="translate(843.08 331.998438) scale(0.1 -0.1)">
      <defs>
       <path id="DejaVuSans-61" d="M 2194 1759 
Q 1497 1759 1228 1600 
Q 959 1441 959 1056 
Q 959 750 1161 570 
Q 1363 391 1709 391 
Q 2188 391 2477 730 
Q 2766 1069 2766 1631 
L 2766 1759 
L 2194 1759 
z
M 3341 1997 
L 3341 0 
L 2766 0 
L 2766 531 
Q 2569 213 2275 61 
Q 1981 -91 1556 -91 
Q 1019 -91 701 211 
Q 384 513 384 1019 
Q 384 1609 779 1909 
Q 1175 2209 1959 2209 
L 2766 2209 
L 2766 2266 
Q 2766 2663 2505 2880 
Q 2244 3097 1772 3097 
Q 1472 3097 1187 3025 
Q 903 2953 641 2809 
L 641 3341 
Q 956 3463 1253 3523 
Q 1550 3584 1831 3584 
Q 2591 3584 2966 3190 
Q 3341 2797 3341 1997 
z
" transform="scale(0.015625)"/>
      </defs>
      <use xlink:href="#DejaVuSans-73"/>
      <use xlink:href="#DejaVuSans-74" x="52.099609"/>
      <use xlink:href="#DejaVuSans-61" x="91.308594"/>
      <use xlink:href="#DejaVuSans-72" x="152.587891"/>
     </g>
    </g>
    <g id="line2d_42">
     <path d="M 815.08 343.176562 
L 825.08 343.176562 
L 835.08 343.176562 
" style="fill: none; stroke: #ff7f0e; stroke-width: 1.5; stroke-linecap: square"/>
    </g>
    <g id="text_22">
     <!-- fork -->
     <g style="fill: #a9a9a9" transform="translate(843.08 346.676562) scale(0.1 -0.1)">
      <defs>
       <path id="DejaVuSans-66" d="M 2375 4863 
L 2375 4384 
L 1825 4384 
Q 1516 4384 1395 4259 
Q 1275 4134 1275 3809 
L 1275 3500 
L 2222 3500 
L 2222 3053 
L 1275 3053 
L 1275 0 
L 697 0 
L 697 3053 
L 147 3053 
L 147 3500 
L 697 3500 
L 697 3744 
Q 697 4328 969 4595 
Q 1241 4863 1831 4863 
L 2375 4863 
z
" transform="scale(0.015625)"/>
       <path id="DejaVuSans-6b" d="M 581 4863 
L 1159 4863 
L 1159 1991 
L 2875 3500 
L 3609 3500 
L 1753 1863 
L 3688 0 
L 2938 0 
L 1159 1709 
L 1159 0 
L 581 0 
L 581 4863 
z
" transform="scale(0.015625)"/>
      </defs>
      <use xlink:href="#DejaVuSans-66"/>
      <use xlink:href="#DejaVuSans-6f" x="35.205078"/>
      <use xlink:href="#DejaVuSans-72" x="96.386719"/>
      <use xlink:href="#DejaVuSans-6b" x="137.5"/>
     </g>
    </g>
   </g>
  </g>
 </g>
 <defs>
  <clipPath id="p3d52cc2c9c">
   <rect x="108" y="43.2" width="669.6" height="277.2"/>
  </clipPath>
 </defs>
</svg>
